SplineFontDB: 3.0
FontName: Untitled
FullName: UntitledRegular
FamilyName: Untitled
Weight: Book
Copyright: 
Version: 1.0
ItalicAngle: 0
UnderlinePosition: -103
UnderlineWidth: 102
Ascent: 1638
Descent: 410
sfntRevision: 0x00010000
LayerCount: 2
Layer: 0 0 "Back"  1
Layer: 1 0 "Fore"  0
NeedsXUIDChange: 1
XUID: [1021 208 2069950124 3526972]
FSType: 4
OS2Version: 2
OS2_WeightWidthSlopeOnly: 0
OS2_UseTypoMetrics: 1
CreationTime: 1296433391
ModificationTime: 1314298321
PfmFamily: 81
TTFWeight: 400
TTFWidth: 5
LineGap: 28
VLineGap: 0
Panose: 0 0 0 0 0 0 0 0 0 0
OS2TypoAscent: 7
OS2TypoAOffset: 1
OS2TypoDescent: 52
OS2TypoDOffset: 1
OS2TypoLinegap: 115
OS2WinAscent: -212
OS2WinAOffset: 1
OS2WinDescent: 653
OS2WinDOffset: 1
HheadAscent: -212
HheadAOffset: 1
HheadDescent: 0
HheadDOffset: 1
OS2SubXSize: 1434
OS2SubYSize: 1331
OS2SubXOff: 0
OS2SubYOff: 287
OS2SupXSize: 1434
OS2SupYSize: 1331
OS2SupXOff: 0
OS2SupYOff: 977
OS2StrikeYSize: 102
OS2StrikeYPos: 512
OS2Vendor: 'newt'
OS2CodePages: 00000001.00000000
OS2UnicodeRanges: 00000027.08000000.14000000.00000000
MarkAttachClasses: 1
DEI: 91125
TtTable: prep
PUSHW_1
 0
CALL
SVTCA[y-axis]
PUSHW_3
 1
 3
 2
CALL
SVTCA[y-axis]
PUSHW_8
 1
 30
 27
 21
 15
 9
 0
 8
CALL
PUSHW_8
 2
 33
 27
 21
 15
 9
 0
 8
CALL
PUSHW_8
 3
 36
 27
 21
 15
 9
 0
 8
CALL
SVTCA[y-axis]
PUSHW_3
 4
 4
 7
CALL
PUSHW_1
 0
DUP
RCVT
RDTG
ROUND[Black]
RTG
WCVTP
EndTTInstrs
TtTable: fpgm
PUSHW_1
 0
FDEF
MPPEM
PUSHW_1
 9
LT
IF
PUSHB_2
 1
 1
INSTCTRL
EIF
PUSHW_1
 511
SCANCTRL
PUSHW_1
 68
SCVTCI
PUSHW_2
 9
 3
SDS
SDB
ENDF
PUSHW_1
 1
FDEF
DUP
DUP
RCVT
ROUND[Black]
WCVTP
PUSHB_1
 1
ADD
ENDF
PUSHW_1
 2
FDEF
PUSHW_1
 1
LOOPCALL
POP
ENDF
PUSHW_1
 3
FDEF
DUP
GC[cur]
PUSHB_1
 3
CINDEX
GC[cur]
GT
IF
SWAP
EIF
DUP
ROLL
DUP
ROLL
MD[grid]
ABS
ROLL
DUP
GC[cur]
DUP
ROUND[Grey]
SUB
ABS
PUSHB_1
 4
CINDEX
GC[cur]
DUP
ROUND[Grey]
SUB
ABS
GT
IF
SWAP
NEG
ROLL
EIF
MDAP[rnd]
DUP
PUSHB_1
 0
GTEQ
IF
ROUND[Black]
DUP
PUSHB_1
 0
EQ
IF
POP
PUSHB_1
 64
EIF
ELSE
ROUND[Black]
DUP
PUSHB_1
 0
EQ

StartChar: E
Encoding: 69 69 4
Width: 2097
Flags: HW
LayerCount: 2
Fore
SplineSet
1994 2 m 1
 151 2 l 1
 151 1642 l 1
 1937 1642 l 1
 1937 1229 l 1
 790 1231 l 1
 790 1030 l 1
 1765 1030 l 1
 1765 614 l 1
 790 614 l 1
 790 418 l 1
 1994 416 l 1
 1994 2 l 1
EndSplineSet
EndChar

StartChar: F
Encoding: 70 70 5
Width: 2021
Flags: HW
LayerCount: 2
Fore
SplineSet
1936 1223 m 1
 804 1223 l 1
 804 1032 l 1
 1775 1032 l 1
 1768 610 l 1
 798 610 l 1
 794 0 l 1
 151 0 l 1
 151 1642 l 1
 1936 1642 l 1
 1936 1223 l 1
EndSplineSet
EndChar

StartChar: G
Encoding: 71 71 6
Width: 2424
Flags: HW
LayerCount: 2
Fore
SplineSet
2293 221 m 1
 2055.50585938 18.5048828125 1691.68066406 -57 1255 -57 c 0
 717.951171875 -57 318.61328125 89.443359375 166 462 c 128
 120.666992188 572.666992188 98 698 98 838 c 0
 98 1263.66601562 310.215820312 1499.79589844 621 1615 c 128
 768.59375 1669.7109375 946.407226562 1698 1144 1698 c 0
 1505.72851562 1698 1807.65625 1632.62890625 2016.5 1487.5 c 128
 2117.01464844 1417.65136719 2201.87304688 1333.29589844 2244.5 1221.5 c 128
 2262.16699219 1175.16699219 2271 1131.33300781 2271 1090 c 1
 1550 1065 l 1
 1490.31347656 1164.47851562 1439.30957031 1236.796875 1309 1263.5 c 128
 1268.33300781 1271.83300781 1216.66699219 1276 1154 1276 c 0
 896.442382812 1276 774 1100.73339844 774 846 c 0
 774 610.061523438 882.182617188 459.286132812 1055 394 c 128
 1115 371.333007812 1183 360 1259 360 c 0
 1373.66992188 360 1463.20800781 365.763671875 1544 385 c 0
 1576.66699219 392.333007812 1602.33300781 400.666992188 1621 410 c 1
 1621 545 l 1
 1335 545 l 1
 1335 928 l 1
 2293 928 l 1
 2293 221 l 1
EndSplineSet
EndChar

StartChar: H
Encoding: 72 72 7
Width: 2294
Flags: HW
LayerCount: 2
Fore
SplineSet
1500 614 m 1
 794 614 l 1
 794 0 l 1
 151 0 l 1
 151 1645 l 1
 794 1645 l 1
 794 1036 l 1
 1505 1036 l 1
 1505 1645 l 1
 2141 1645 l 1
 2141 0 l 1
 1505 0 l 1
 1500 614 l 1
EndSplineSet
EndChar

StartChar: I
Encoding: 73 73 8
Width: 951
Flags: W
HStem: 0 21G<151 798> 1625 20G<151 798>
VStem: 151 647<0 1645>
LayerCount: 2
Fore
SplineSet
151 1645 m 1
 798 1645 l 1
 798 0 l 1
 151 0 l 1
 151 1645 l 1
EndSplineSet
EndChar

StartChar: J
Encoding: 74 74 9
Width: 2012
Flags: HW
LayerCount: 2
Fore
SplineSet
963 367 m 0
 1146.36230469 367 1238 474.5703125 1238 657 c 2
 1240 1645 l 1
 1870 1645 l 1
 1870 584 l 2
 1870 98.876953125 1477.52734375 -57 996 -57 c 0
 596.95703125 -57 291.223632812 39.6416015625 158.5 303 c 128
 116.166992188 387 95 488.666992188 95 608 c 2
 95 698 l 1
 713 782 l 1
 713 565.829101562 746.849609375 367 963 367 c 0
EndSplineSet
EndChar

StartChar: K
Encoding: 75 75 10
Width: 2356
Flags: HW
LayerCount: 2
Fore
SplineSet
2207 1645 m 1
 1556 1077 l 1
 2309 0 l 1
 1513 0 l 1
 1048 688 l 1
 779 463 l 1
 779 0 l 1
 151 0 l 1
 151 1645 l 1
 779 1645 l 1
 779 1061 l 1
 1388 1645 l 1
 2207 1645 l 1
EndSplineSet
EndChar

StartChar: L
Encoding: 76 76 11
Width: 1990
Flags: HW
LayerCount: 2
Fore
SplineSet
1883 0 m 1
 151 0 l 1
 151 1645 l 1
 794 1645 l 1
 794 426 l 1
 1883 426 l 1
 1883 0 l 1
EndSplineSet
EndChar

StartChar: M
Encoding: 77 77 12
Width: 2852
Flags: W
HStem: 0 21G<151 765 1193.46 1655.54 2084 2699> 1625 20G<151 1149.37 1699.66 2699>
VStem: 151 614<0 1157> 2084 615<0 1157>
LayerCount: 2
Fore
SplineSet
1648 0 m 1
 1201 0 l 1
 765 1157 l 1
 765 0 l 1
 151 0 l 1
 151 1645 l 1
 1142 1645 l 1
 1425 877 l 1
 1707 1645 l 1
 2699 1645 l 1
 2699 0 l 1
 2084 0 l 1
 2084 1157 l 1
 1648 0 l 1
EndSplineSet
EndChar

StartChar: N
Encoding: 78 78 13
Width: 2327
Flags: W
HStem: 0 21G<151 769 1470.15 2174> 1625 20G<151 897.915 1560 2174>
VStem: 151 618<0 905> 1560 614<793 1645>
LayerCount: 2
Fore
SplineSet
769 905 m 1
 769 0 l 1
 151 0 l 1
 151 1645 l 1
 882 1645 l 1
 1560 793 l 1
 1560 1645 l 1
 2174 1645 l 1
 2174 0 l 1
 1486 0 l 1
 769 905 l 1
EndSplineSet
EndChar

StartChar: O
Encoding: 79 79 14
Width: 2444
Flags: W
HStem: -57 440<993.967 1429.23> 1262 436<1002.07 1436.82>
VStem: 98 687<589.263 1056.9> 1645 686<599.078 1056.88>
LayerCount: 2
Fore
SplineSet
1215 -57 m 0
 806.7265625 -57 474.833984375 39.5703125 283 263 c 0
 167.59375 397.415039062 98 583.657226562 98 836 c 0
 98 1475.81640625 576.706054688 1698 1215 1698 c 256
 1759.29589844 1698 2166.04980469 1534.59863281 2293 1117 c 0
 2318.33300781 1033.66699219 2331 940 2331 836 c 0
 2331 177.340820312 1869.84765625 -57 1215 -57 c 0
1645 834 m 0
 1645 1113.38085938 1492.21679688 1262 1215 1262 c 256
 937.786132812 1262 785 1113.37109375 785 834 c 0
 785 540.189453125 920.443359375 383 1215 383 c 256
 1509.55859375 383 1645 540.186523438 1645 834 c 0
EndSplineSet
EndChar

StartChar: P
Encoding: 80 80 15
Width: 2274
Flags: HW
HStem: 1 21G<151 792> 592 353<792 1477.21> 1257 381<792 1462.22>
VStem: 151 641<1 592 945 1257> 1513 657<982.198 1212.16>
LayerCount: 2
Fore
SplineSet
2170 1149 m 0
 2170 766.129882812 1962.46679688 592 1572 592 c 2
 792 592 l 1
 792 1 l 1
 151 1 l 1
 151 1638 l 1
 1316 1638 l 2
 1768.62207031 1638 2170 1593.45703125 2170 1149 c 0
1513 1104 m 0
 1513 1234.77929688 1409.26269531 1257 1298 1257 c 2
 792 1257 l 1
 792 945 l 1
 1292 945 l 2
 1421.44726562 945 1513 954.427734375 1513 1104 c 0
EndSplineSet
EndChar

StartChar: Q
Encoding: 81 81 16
Width: 2469
Flags: HW
LayerCount: 2
Fore
SplineSet
1549 29 m 1
 1440.41113281 11.724609375 1335.06542969 -6 1216 -6 c 0
 685.153320312 -6 292.133789062 147.880859375 149 541.5 c 128
 115.666992188 633.166992188 99 741.333007812 99 866 c 0
 99 1506.67773438 576.91796875 1729 1216 1729 c 256
 1760.29589844 1729 2167.04980469 1565.59863281 2294 1148 c 128
 2319.33300781 1064.66699219 2332 970.666992188 2332 866 c 0
 2332 578.677734375 2239.97070312 393.484375 2082 264 c 1
 2410 43 l 1
 2033 -285 l 1
 1549 29 l 1
1652 872 m 0
 1652 1153.03808594 1497.08496094 1300 1218 1300 c 256
 938.850585938 1300 783 1153.2265625 783 872 c 0
 783 577.41015625 922.890625 422 1218 422 c 256
 1513.08105469 422 1652 577.571289062 1652 872 c 0
EndSplineSet
EndChar

StartChar: R
Encoding: 82 82 17
Width: 2320
Flags: HW
LayerCount: 2
Fore
SplineSet
792 0 m 1
 151 0 l 1
 151 1649 l 1
 1357 1649 l 2
 1644.83398438 1649 1915.90234375 1630.22460938 2070.5 1496 c 128
 2156.98828125 1420.90917969 2211 1311.20898438 2211 1149 c 0
 2211 844.796875 2093.20507812 696.81640625 1828 653 c 1
 2223 23 l 1
 2223 0 l 1
 1507 0 l 1
 1132 590 l 1
 792 590 l 1
 792 0 l 1
1564 1102 m 0
 1564 1216.59667969 1453.00585938 1237 1339 1237 c 2
 792 1237 l 1
 792 954 l 1
 1332 954 l 2
 1461.390625 954 1564 971.799804688 1564 1102 c 0
EndSplineSet
EndChar

StartChar: S
Encoding: 83 83 18
Width: 2294
Flags: HW
LayerCount: 2
Fore
SplineSet
1065 1321 m 0
 985.33984375 1321 858 1317.95117188 858 1239 c 0
 858 1195.11914062 928.999023438 1176.23339844 973.5 1165 c 128
 1119.6796875 1128.10058594 1311.30957031 1122.8125 1471 1100 c 0
 1765.2265625 1056.84667969 2054.69433594 1008.16210938 2157.5 772.5 c 128
 2179.16699219 722.833007812 2190 664 2190 596 c 0
 2190 418.564453125 2119.30957031 298.557617188 2021.5 214 c 128
 1832.13867188 50.2939453125 1521.44824219 -8 1174 -8 c 0
 637.095703125 -8 165.840820312 50.2783203125 103 524 c 1
 234.274414062 524 385.306640625 535.002929688 520 542 c 0
 640 547.333007812 775.333007812 553.666992188 926 561 c 1
 978.291992188 454.040039062 1083.41015625 428 1241 428 c 0
 1303.36132812 428 1371.57617188 440.083984375 1410 466.5 c 128
 1426 477.5 1434 492.666992188 1434 512 c 0
 1434 559.739257812 1395.98535156 584.971679688 1358 596 c 0
 1261.06933594 624.333007812 1136.32714844 636.86328125 1017.5 650 c 128
 665.97265625 688.862304688 287.185546875 724.268554688 152.5 980 c 128
 126.166992188 1030 113 1089.66699219 113 1159 c 0
 113 1496.19238281 367.563476562 1634.19140625 643.5 1696.5 c 128
 776.798828125 1726.59960938 933.07421875 1741 1090 1741 c 0
 1500.3515625 1741 1862.06835938 1683.78808594 2036 1445 c 128
 2075.33300781 1391 2102 1325.66699219 2116 1249 c 1
 1859.08984375 1236.95703125 1607.91992188 1223.32910156 1352 1210 c 1
 1282.20507812 1279.79492188 1203.29882812 1321 1065 1321 c 0
EndSplineSet
EndChar

StartChar: T
Encoding: 84 84 19
Width: 1983
Flags: HW
LayerCount: 2
Fore
SplineSet
1899 1225 m 1
 1305 1225 l 1
 1305 0 l 1
 658 0 l 1
 662 1225 l 1
 78 1225 l 1
 78 1647 l 1
 1899 1647 l 1
 1899 1225 l 1
EndSplineSet
EndChar

StartChar: U
Encoding: 85 85 20
Width: 2238
Flags: HW
LayerCount: 2
Fore
SplineSet
2096.31542969 1692 m 1
 2099.80273438 1493.23730469 2098.31542969 1274.77539062 2098.31542969 1071 c 0
 2097.6484375 945 2096.98242188 814.666992188 2096.31542969 680 c 0
 2096.31542969 123.953125 1681.19042969 12 1115.31542969 12 c 0
 547.499023438 12 134.315429688 121.546875 134.315429688 680 c 0
 133.6484375 814.666992188 132.982421875 945 132.315429688 1071 c 0
 132.315429688 1274.81835938 130.827148438 1493.17480469 134.315429688 1692 c 1
 771.315429688 1692 l 1
 775.315429688 958 l 1
 775.315429688 772.1640625 784.260742188 600.330078125 880.815429688 511.5 c 128
 933.9921875 462.577148438 1009.97558594 438 1115.31542969 438 c 0
 1365.95410156 438 1442.64453125 583.23046875 1451.81542969 823.5 c 128
 1453.48242188 867.166992188 1454.6484375 912 1455.31542969 958 c 2
 1459.31542969 1692 l 1
 2096.31542969 1692 l 1
EndSplineSet
EndChar

StartChar: V
Encoding: 86 86 21
Width: 2167
Flags: HW
LayerCount: 2
Fore
SplineSet
1431 39 m 1
 735 39 l 1
 37 1692 l 1
 667 1692 l 1
 797.182617188 1377.296875 895.947265625 1146.60839844 1017 856.5 c 128
 1036.33300781 810.166992188 1052.16699219 772.833007812 1064.5 744.5 c 130
 1083 702 l 257
 1101.5 744.5 l 130
 1161.78222656 882.985351562 1230.21972656 1049.67675781 1292 1197 c 0
 1353.33300781 1341.66699219 1422.33300781 1506.66699219 1499 1692 c 1
 2130 1692 l 1
 1431 39 l 1
EndSplineSet
EndChar

StartChar: W
Encoding: 87 87 22
Width: 3133
Flags: HW
LayerCount: 2
Fore
SplineSet
1840 1671 m 1
 2161 799 l 1
 2434 1671 l 1
 3087 1671 l 1
 2522 23 l 1
 1864 25 l 1
 1565 854 l 1
 1266 25 l 1
 609 23 l 1
 44 1671 l 1
 697 1671 l 1
 969 799 l 1
 1291 1671 l 1
 1840 1671 l 1
EndSplineSet
EndChar

StartChar: X
Encoding: 88 88 23
Width: 2307
Flags: HW
LayerCount: 2
Fore
SplineSet
1163 459 m 1
 844 18 l 1
 61 18 l 1
 786 891 l 1
 180 1669 l 1
 930 1667 l 1
 1194 1321 l 1
 1458 1667 l 1
 2195 1669 l 1
 1562 891 l 1
 2253 18 l 1
 1483 18 l 1
 1163 459 l 1
EndSplineSet
EndChar

StartChar: Y
Encoding: 89 89 24
Width: 2174
Flags: HW
LayerCount: 2
Fore
SplineSet
1392 12 m 1
 772 12 l 1
 772 463 l 1
 43 1653 l 1
 741 1655 l 1
 1101 1040 l 1
 1462 1655 l 1
 2130 1653 l 1
 1392 463 l 1
 1392 12 l 1
EndSplineSet
EndChar

StartChar: Z
Encoding: 90 90 25
Width: 2180
Flags: HW
LayerCount: 2
Fore
SplineSet
101 360 m 1
 1117 1233 l 1
 185 1233 l 1
 185 1645 l 1
 2085 1645 l 1
 2085 1253 l 1
 1096 424 l 1
 2048 424 l 1
 2048 0 l 1
 101 0 l 1
 101 360 l 1
EndSplineSet
EndChar

StartChar: one
Encoding: 49 49 26
Width: 1105
Flags: HW
LayerCount: 2
Fore
SplineSet
79 1317 m 1
 253.162109375 1380.05859375 410.118164062 1461.45898438 536 1575 c 1
 954 1575 l 1
 954 0 l 1
 362 0 l 1
 362 1047 l 1
 289.416992188 1016.64746094 181.358398438 975 79 975 c 1
 79 1317 l 1
EndSplineSet
EndChar

StartChar: two
Encoding: 50 50 27
Width: 2217
Flags: HW
LayerCount: 2
Fore
SplineSet
1109.5 410 m 130
 1214.83007812 410 1328.54199219 411 1436 411 c 0
 1632.66699219 411 1853 411.333007812 2097 412 c 1
 2097 0 l 1
 78 0 l 1
 78 443.15625 293.72265625 673.874023438 600.5 808 c 128
 735.1015625 866.849609375 889.298828125 905.356445312 1044 938 c 1
 1175.74121094 964.348632812 1341.96777344 975.521484375 1419.5 1056.5 c 128
 1434.5 1072.16699219 1442 1090.66699219 1442 1112 c 0
 1442 1204.15625 1274.61425781 1219 1184 1219 c 0
 1038.75683594 1219 910.349609375 1186.78515625 851 1102 c 128
 832.333007812 1075.33300781 823 1044 823 1008 c 1
 112 1008 l 1
 150.541992188 1485.91601562 615.075195312 1612 1128 1612 c 0
 1544.21875 1612 1925.71289062 1548.46484375 2069.5 1273 c 128
 2101.16699219 1212.33300781 2117 1139.66699219 2117 1055 c 0
 2117 905.950195312 2045.90625 810.359375 1956.5 745 c 128
 1715.58886719 568.885742188 1303.6484375 567.99609375 963 495 c 128
 876.0234375 476.362304688 784.110351562 449.268554688 721 410 c 1
 1109.5 410 l 130
EndSplineSet
EndChar

StartChar: three
Encoding: 51 51 28
Width: 2210
Flags: HW
LayerCount: 2
Fore
SplineSet
1107 1214 m 0
 990.133789062 1214 897.643554688 1189.52539062 847 1122 c 1
 157 1122 l 1
 157 1425.18164062 416.173828125 1525.67773438 678 1568.5 c 128
 812.252929688 1590.45703125 966.1328125 1597 1118 1597 c 0
 1328.05761719 1597 1536.11132812 1569.03027344 1705 1519.5 c 128
 1837.45800781 1480.65429688 1954.37304688 1417.93847656 2025 1321 c 128
 2059 1274.33300781 2076 1219 2076 1155 c 0
 2076 1037.49804688 2025.0859375 961.07421875 1962 907 c 0
 1928.66699219 879 1891 857.333007812 1849 842 c 1
 2003.71777344 796.616210938 2117 672.760742188 2117 471 c 0
 2117 226.860351562 1952.50878906 110.393554688 1773 44 c 128
 1600.40234375 -19.8369140625 1384.35351562 -43 1152 -43 c 0
 676.665039062 -43 250.510742188 7.150390625 121.5 354 c 128
 101.166992188 408.666992188 90.3330078125 471.666992188 89 543 c 1
 794 543 l 1
 830.436523438 406.970703125 961.920898438 358 1132 358 c 0
 1242.7421875 358 1358.90332031 380.862304688 1405.5 447 c 128
 1415.83300781 461.666992188 1421 478.666992188 1421 498 c 0
 1421 627.9296875 1250.95410156 635 1122 635 c 2
 610 635 l 1
 610 1022 l 1
 1151 1022 l 130
 1230.06640625 1022 1318.90722656 1029.59082031 1360.5 1068.5 c 128
 1370.83300781 1078.16699219 1376 1090.66699219 1376 1106 c 0
 1376 1204.75585938 1204.29785156 1214 1107 1214 c 0
EndSplineSet
EndChar

StartChar: four
Encoding: 52 52 29
Width: 2220
Flags: HW
LayerCount: 2
Fore
SplineSet
1832 -29 m 1
 1254 -29 l 1
 1254 233 l 1
 107 236 l 1
 109 655 l 1
 1002 1556 l 1
 1842 1556 l 1
 1842 680 l 1
 2126 680 l 1
 2126 233 l 1
 1832 233 l 1
 1832 -29 l 1
1254 680 m 1
 1254 1190 l 1
 758 680 l 1
 1254 680 l 1
EndSplineSet
EndChar

StartChar: five
Encoding: 53 53 30
Width: 2221
Flags: HW
LayerCount: 2
Fore
SplineSet
1045 688 m 0
 936.112304688 688 851.591796875 670.224609375 769 633 c 1
 197 655 l 1
 322 1536 l 1
 2020 1534 l 1
 2020 1145 l 1
 752 1145 l 1
 728 1006 l 1
 867.493164062 1040.87304688 1019.92578125 1051 1197 1051 c 0
 1606.56738281 1051 1984.30957031 971.91015625 2097.5 673.5 c 128
 2115.83300781 625.166992188 2125 570 2125 508 c 0
 2125 335.4609375 2058.4296875 218.05078125 1965 135.5 c 128
 1791.09375 -18.15625 1506.49609375 -72 1185 -72 c 0
 702.901367188 -72 263.137695312 -3.9658203125 122 338.5 c 128
 99.3330078125 393.5 87 456.666992188 85 528 c 1
 740 504 l 1
 800.008789062 299.96875 1260.19921875 274.837890625 1400.5 428.5 c 128
 1421.5 451.5 1432 480.666992188 1432 516 c 0
 1432 634.209960938 1300.37402344 664.436523438 1196 679 c 128
 1148.32421875 685.65234375 1094.06738281 688 1045 688 c 0
EndSplineSet
EndChar

StartChar: six
Encoding: 54 54 31
Width: 2206
Flags: HW
LayerCount: 2
Fore
SplineSet
1307 39 m 2
 1277.59179688 39 1231.27734375 39.5693359375 1205 33 c 1
 1192.5390625 33 1173.56640625 39.0888671875 1166 29 c 1
 1170 29 l 1
 1159 33 l 1
 891.381835938 24.029296875 672.344726562 69.087890625 478 156 c 1
 473 156 l 1
 431.624023438 186.698242188 387.592773438 204.762695312 351 240 c 1
 303.9296875 282.36328125 263.654296875 323.517578125 228 377 c 0
 228 377.78125 225.787109375 381 224 381 c 1
 205.275390625 409.087890625 185.424804688 449.958984375 168 479 c 1
 159.946289062 497.791992188 163.08984375 503.3359375 154 520 c 1
 137.485351562 575.046875 120.116210938 651.572265625 105 707 c 0
 98.3330078125 733.666992188 95 761.5 95 790.5 c 130
 95 965 l 1
 112.890625 1081.28710938 132.212890625 1192.41992188 185 1274 c 1
 205.05078125 1311.42675781 222.573242188 1330.92285156 248 1362 c 1
 248 1364.45507812 252 1369.54589844 252 1372 c 1
 336 1456 l 1
 364.130859375 1472.87792969 415.286132812 1495.14648438 424 1530 c 1
 428 1526 l 1
 572 1593 l 1
 581.338867188 1596.11328125 592.827148438 1598.02246094 600 1604 c 1
 721.627929688 1643.31445312 862.41015625 1666.64257812 1012 1671 c 1
 1068.43847656 1668.3125 1129.92285156 1677 1186 1677 c 0
 1256.17285156 1677 1318.73535156 1661.44140625 1391 1667 c 1
 1563 1642 l 1
 1567.09863281 1638.72167969 1568.45898438 1637 1571.5 1637 c 128
 1594.20507812 1637 1626.57519531 1625.28515625 1648 1621 c 128
 1698.3515625 1610.9296875 1757.28613281 1582.14257812 1803 1565 c 1
 1839.13085938 1539.57519531 1889.22753906 1517.36132812 1919 1485 c 1
 1958.82421875 1445.17578125 2002.45410156 1399.62207031 2024.5 1341.5 c 128
 2028.16699219 1331.83300781 2032 1321 2036 1309 c 128
 2042 1291 2042 1291 2048 1273 c 128
 2056.71875 1246.84375 2063 1239.54003906 2063 1210 c 2
 2063 1196 l 1
 2048.69628906 1189.49804688 2053.68457031 1192 2038 1192 c 1
 2007.86816406 1185.97363281 1958.07324219 1186 1925 1186 c 0
 1751.66699219 1186 1578.33300781 1186 1405 1186 c 1
 1405 1188.87792969 1401 1189.12109375 1401 1192 c 1
 1369.85449219 1230.93164062 1349.65429688 1256.78222656 1296.5 1274.5 c 128
 1277.84667969 1280.71777344 1251.03222656 1286.78710938 1233 1294 c 1
 1200.91894531 1290.43554688 1169.06347656 1300 1137 1300 c 0
 999.221679688 1300 883.708984375 1264.27929688 822 1182 c 1
 811.119140625 1169.30566406 816.282226562 1161.73242188 801 1153 c 1
 795.430664062 1136.29296875 788.541015625 1114.62402344 783 1098 c 0
 781.112304688 1092.33691406 777 1090.47070312 777 1087 c 128
 777 1086 777 1086 777 1081 c 0
 777 1076.5390625 776.525390625 1066.41015625 783 1069 c 1
 938 1104 l 1
 939.333007812 1102.66699219 941.166992188 1102 943.5 1102 c 128
 945.833007812 1102 947.666992188 1102.66699219 949 1104 c 1
 1064.73144531 1115.703125 1174.16210938 1128 1299 1128 c 0
 1420.39257812 1128 1530.53320312 1107.14746094 1639 1094 c 128
 1661 1091.33300781 1682.66699219 1086.33300781 1704 1079 c 1
 1704 1077.66699219 1704.66699219 1077 1706 1077 c 128
 1707.33300781 1077 1708 1077.66699219 1708 1079 c 1
 1914.57714844 1014.44433594 2071.02539062 905.455078125 2112 676 c 1
 2112 667.098632812 2113 652.774414062 2113 642 c 128
 2113 631.15625 2114 616.9765625 2114 608 c 0
 2114 351.677734375 1980.16113281 247.56640625 1817 152 c 1
 1803.96972656 158.514648438 1757.66308594 119.444335938 1743 117 c 1
 1660.91503906 89.638671875 1560.00878906 60.177734375 1465 49 c 1
 1462.08496094 47.056640625 1437.38671875 49 1434 49 c 0
 1403.60253906 41.400390625 1349.55273438 39 1317 39 c 2
 1307 39 l 2
1121 350 m 256
 1119.66699219 350 1119 349 1119 347 c 128
 1119 345 1119.66699219 344 1121 344 c 256
 1122.33300781 344 1123 345 1123 347 c 128
 1123 349 1122.33300781 350 1121 350 c 256
1248 739 m 1
 1233.88574219 743.705078125 1205.62304688 750 1190 750 c 2
 1125 750 l 2
 992.311523438 750 867.788085938 727.313476562 817.5 643.5 c 128
 806.5 625.166992188 801 603.333007812 801 578 c 0
 801 456.272460938 942.637695312 459.047851562 1041.5 436.5 c 128
 1060.5 432.166992188 1078.66699219 430 1096 430 c 0
 1223.5078125 430 1355.8515625 453.784179688 1408.5 530.5 c 128
 1420.16699219 547.5 1426 567.333007812 1426 590 c 0
 1426 692.237304688 1335.04492188 717.387695312 1254 739 c 1
 1248 739 l 1
582 688 m 0
 580 688 579 687.333007812 579 686 c 128
 579 684.666992188 580 684 582 684 c 0
 583.333007812 684 584 684.666992188 584 686 c 128
 584 687.333007812 583.333007812 688 582 688 c 0
572 711 m 0
 570 711 569 710 569 708 c 128
 569 706 570 705.666992188 572 707 c 0
 573.333007812 707 574 707.666992188 574 709 c 128
 574 710.333007812 573.333007812 711 572 711 c 0
600 737 m 256
 598.666992188 737 598 736.333007812 598 735 c 128
 598 733.666992188 598.666992188 733 600 733 c 256
 601.333007812 733 602 733.666992188 602 735 c 128
 602 736.333007812 601.333007812 737 600 737 c 256
502 846 m 256
 500.666992188 846 500 845 500 843 c 128
 500 841 500.666992188 840 502 840 c 256
 503.333007812 840 504 841 504 843 c 128
 504 845 503.333007812 846 502 846 c 256
576 893 m 0
 574.666992188 893 574 892 574 890 c 128
 574 888 574.666992188 887 576 887 c 0
 580 889 580 891 576 893 c 0
291 899 m 256
 289.666992188 899 289 898.333007812 289 897 c 128
 289 895.666992188 289.666992188 895 291 895 c 256
 292.333007812 895 293 895.666992188 293 897 c 128
 293 898.333007812 292.333007812 899 291 899 c 256
748 958 m 256
 746.666992188 958 746 957 746 955 c 128
 746 953 746.666992188 952 748 952 c 256
 749.333007812 952 750 953 750 955 c 128
 750 957 749.333007812 958 748 958 c 256
850 993 m 256
 848.666992188 993 848 992 848 990 c 128
 848 988 848.666992188 987 850 987 c 256
 851.333007812 987 852 988 852 990 c 128
 852 992 851.333007812 993 850 993 c 256
312 999 m 0
 310 1000.33300781 309 999.666992188 309 997 c 128
 309 994.333007812 310 993.666992188 312 995 c 0
 313.333007812 995 314 995.666992188 314 997 c 128
 314 998.333007812 313.333007812 999 312 999 c 0
600 1059 m 1
 604 1063 l 1
 600 1063 l 1
 600 1059 l 1
435 1143 m 1
 439 1147 l 1
 435 1147 l 1
 435 1143 l 1
152 1164 m 128
 152 1171.97363281 147 1173.99707031 147 1164 c 128
 147 1155.54882812 152 1154.73535156 152 1164 c 128
508 1208 m 0
 506 1208 505 1207.33300781 505 1206 c 128
 505 1204.66699219 506 1204 508 1204 c 0
 509.333007812 1204 510 1204.66699219 510 1206 c 128
 510 1207.33300781 509.333007812 1208 508 1208 c 0
262 1317 m 256
 260.666992188 1317 260 1316 260 1314 c 128
 260 1312 260.666992188 1311 262 1311 c 256
 263.333007812 1311 264 1312 264 1314 c 128
 264 1316 263.333007812 1317 262 1317 c 256
273 1319 m 1
 275 1319 l 2
 277.666992188 1319 279.666992188 1320.33300781 281 1323 c 1
 273 1319 l 1
291 1331 m 256
 289.666992188 1331 289 1330.33300781 289 1329 c 128
 289 1327.66699219 289.666992188 1327 291 1327 c 256
 292.333007812 1327 293 1327.66699219 293 1329 c 128
 293 1330.33300781 292.333007812 1331 291 1331 c 256
305 1333 m 0
 306.333007812 1335 306 1336 304 1336 c 128
 302 1336 301 1335 301 1333 c 0
 301 1331.66699219 301.666992188 1331 303 1331 c 128
 304.333007812 1331 305 1331.66699219 305 1333 c 0
EndSplineSet
EndChar

StartChar: seven
Encoding: 55 55 32
Width: 2174
Flags: HW
LayerCount: 2
Fore
SplineSet
2005 1645 m 2
 2037.34863281 1645 2089 1656.17382812 2089 1618 c 2
 2089 1614 l 1
 2083.56054688 1554.16308594 2079.9765625 1472.72070312 2075 1413 c 1
 2058.28710938 1346.14648438 2035.3984375 1286.97167969 2011 1227.5 c 128
 1993.02148438 1183.67871094 1967.13574219 1142.203125 1941 1103 c 128
 1934.33300781 1093 1930 1087 1928 1085 c 2
 1682 844 l 1
 1607.33300781 785.333007812 1533.66699219 723 1461 657 c 0
 1436.65527344 635.360351562 1390.94433594 616.84765625 1379 584 c 1
 1284 492 l 1
 1280.32617188 484.653320312 1276.41113281 474.846679688 1270 471 c 1
 1212.17773438 391.333984375 1169.37597656 312.350585938 1137 211 c 0
 1124.81835938 174.454101562 1122.12890625 113.653320312 1110 79 c 128
 1105.33300781 65.6669921875 1100 59 1094 59 c 2
 1014 59 l 1
 1006 63 l 1
 353 63 l 1
 318 70 l 1
 318 79.3330078125 318 88.6669921875 318 98 c 1
 323.881835938 130.350585938 327.309570312 168.1640625 332 201 c 1
 338 207 l 1
 352.09765625 285.946289062 379.848632812 362.163085938 416 422 c 1
 425.884765625 427.930664062 435.586914062 448.131835938 442 460.5 c 128
 449 474 449 474 456 487.5 c 128
 460.666992188 496.5 465 504 469 510 c 0
 549.25 608.48828125 625.399414062 698.298828125 729 776 c 1
 739.268554688 782.41796875 757.556640625 790.69140625 764 801 c 1
 916 907 l 1
 938.609375 915.478515625 966.151367188 937.420898438 990.5 953.5 c 128
 1037.7734375 984.71875 1091.453125 1023.48632812 1138.5 1052 c 128
 1149.5 1058.66699219 1155.66699219 1061.66699219 1157 1061 c 1
 1225.765625 1106.84375 1291.5078125 1160.00878906 1344 1223 c 1
 1344 1225 l 2
 1344 1228.18847656 1341.49609375 1231 1338 1231 c 2
 981 1231 l 1
 957.111328125 1234.18554688 937.5234375 1237 911.5 1237 c 130
 852 1237 l 2
 833.146484375 1237 807.86328125 1231 789 1231 c 0
 758.352539062 1231 716.779296875 1237 686 1237 c 0
 529 1237 372 1237 215 1237 c 1
 205 1231 l 1
 205 1237 l 1
 107 1237 l 2
 100.4375 1237 93 1244.4375 93 1251 c 2
 93 1335 l 2
 93 1433.25195312 99.72265625 1529.98925781 97 1628 c 1
 100.97265625 1635.94433594 105.0234375 1645.01171875 113 1649 c 1
 251.404296875 1646.3125 386.971679688 1655 525 1655 c 0
 935.388671875 1655 1333.70800781 1648.99316406 1741 1645 c 1
 2005 1645 l 2
762 952 m 1
 762 938 l 1
 746 942 l 1
 762 952 l 1
740 950 m 256
 741.333007812 950 742 949 742 947 c 128
 742 945 741.333007812 944 740 944 c 256
 738.666992188 944 738 945 738 947 c 128
 738 949 738.666992188 950 740 950 c 256
754 963 m 1
 754 956 l 1
 750 963 l 1
 754 963 l 1
775 995 m 1
 752.005859375 995 729 986.697265625 729 963 c 1
 727 963 l 1
 727 991.376953125 748.065429688 998.551757812 775 1001 c 1
 775 995 l 1
746 969 m 0
 747.333007812 969 748 968.333007812 748 967 c 128
 748 965.666992188 747.333007812 965 746 965 c 0
 744 965 743 965.666992188 743 967 c 128
 743 968.333007812 744 969 746 969 c 0
858 1264 m 0
 856 1264 855 1263.33300781 855 1262 c 128
 855 1260.66699219 856 1260 858 1260 c 0
 859.333007812 1260 860 1260.66699219 860 1262 c 128
 860 1263.33300781 859.333007812 1264 858 1264 c 0
584 1417 m 0
 582 1418.33300781 581 1418 581 1416 c 128
 581 1414 582 1413 584 1413 c 0
 585.333007812 1413 586 1413.66699219 586 1415 c 128
 586 1416.33300781 585.333007812 1417 584 1417 c 0
1309 1520 m 256
 1307.66699219 1520 1307 1518.83300781 1307 1516.5 c 128
 1307 1514.16699219 1307.66699219 1513 1309 1513 c 256
 1310.33300781 1513 1311 1514.16699219 1311 1516.5 c 128
 1311 1518.83300781 1310.33300781 1520 1309 1520 c 256
754 1538 m 0
 752.666992188 1538 752 1537.33300781 752 1536 c 128
 752 1534.66699219 752.666992188 1534 754 1534 c 0
 756 1534 757 1534.66699219 757 1536 c 128
 757 1537.33300781 756 1538 754 1538 c 0
EndSplineSet
EndChar

StartChar: eight
Encoding: 56 56 33
Width: 2219
Flags: HW
LayerCount: 2
Fore
SplineSet
1251 24 m 128
 1236.7734375 24 1218.14453125 23 1206 23 c 2
 1190 23 l 1
 965.944335938 29.462890625 751.520507812 35.326171875 567 81 c 128
 499.666992188 97.6669921875 434.333007812 122 371 154 c 1
 367 154 l 1
 248.536132812 206.434570312 162.637695312 308.267578125 125 440 c 128
 113 482 107 525 107 569 c 0
 107 665.834960938 133.034179688 727.595703125 172.5 785 c 128
 176.166992188 790.333007812 178.666992188 793.666992188 180 795 c 1
 180 797.893554688 182.793945312 802.793945312 185 805 c 0
 218.208007812 848.42578125 263.891601562 882.189453125 318 903 c 1
 318 913 l 1
 243.591796875 951.209960938 179.307617188 1013.77246094 149.5 1096 c 128
 139.833007812 1122.66699219 135 1150.66699219 135 1180 c 0
 135 1344.12207031 217.912109375 1447.03125 322 1518 c 1
 347.174804688 1530.58789062 387.034179688 1546.03417969 406 1565 c 1
 459.536132812 1591.14550781 527.30859375 1611.34277344 592 1624 c 1
 613.55078125 1618.61230469 649.696289062 1633.93945312 670 1638 c 0
 773.1875 1655.9453125 878.58203125 1675.74902344 1001 1674 c 128
 1047.66699219 1673.33300781 1093.66699219 1673 1139 1673 c 2
 1288 1673 l 1
 1338.73046875 1665.1953125 1389.09765625 1665.87890625 1440 1659 c 1
 1457.76464844 1659 1483.17578125 1653.93066406 1501 1651.5 c 128
 1508.33300781 1650.5 1512.66699219 1649.66699219 1514 1649 c 2
 1524 1649 l 1
 1755.07617188 1611.11914062 1977.44824219 1533.76464844 2055 1341.5 c 128
 2071 1301.83300781 2079 1256.66699219 2079 1206 c 0
 2079 1080.49804688 2030.55566406 988.82421875 1948.5 937 c 128
 1940.16601562 931.736328125 1928.15527344 921.577148438 1921 918 c 1
 1917 913 l 1
 1925.140625 902.146484375 1940.46582031 896.689453125 1952 889 c 0
 2044.61914062 818.432617188 2118 742.604492188 2118 582 c 0
 2118 448.611328125 2081.7109375 370.280273438 2026 291 c 0
 2022.02929688 286.235351562 2012.86035156 260 2005 260 c 2
 2001 260 l 1
 1955.3125 198.1875 1881.45996094 163.78125 1809 129 c 1
 1792.34960938 132.330078125 1781.24609375 115 1770 115 c 1
 1598 66 l 2
 1596.66699219 64.6669921875 1588.83300781 62.6669921875 1574.5 60 c 128
 1499.83007812 46.107421875 1404.52636719 37.6767578125 1325.5 28 c 128
 1309.16699219 26 1299 25 1295 25 c 0
 1283.73242188 25 1264.53808594 24 1251 24 c 128
961 682 m 1
 892.192382812 662.340820312 817 636.416015625 817 549 c 0
 817 440.415039062 957.096679688 433.845703125 1049 418 c 1
 1053 422 1057 424 1061 424 c 256
 1065 424 1069 422 1073 418 c 1
 1099 418 1125 418 1151 418 c 1
 1184.13769531 423.522460938 1230.87597656 426.479492188 1264 432 c 1
 1267.98144531 435.981445312 1269.55859375 437 1275 437 c 128
 1301.0390625 437 1324.18554688 449.712890625 1347 461.5 c 128
 1373.02050781 474.944335938 1396.75683594 493.3515625 1407.5 522 c 128
 1410.5 530 1415 536.333007812 1421 541 c 1
 1421 559 l 2
 1421 678.11328125 1248.14160156 698 1131 698 c 0
 1084.79199219 698 1032.21679688 691.813476562 989 688 c 1
 975.517578125 685.548828125 974.971679688 678.895507812 961 682 c 1
1952 780 m 0
 1950 781.333007812 1949 781 1949 779 c 128
 1949 777 1950 776 1952 776 c 0
 1953.33300781 776 1954 776.666992188 1954 778 c 128
 1954 779.333007812 1953.33300781 780 1952 780 c 0
1172 1079 m 1
 1261.96191406 1082.59863281 1393 1086.87207031 1393 1180 c 0
 1393 1280.515625 1203.17089844 1282 1104 1282 c 0
 1025.42675781 1282 951.083984375 1269.83203125 891 1247 c 1
 873.711914062 1219.83300781 838 1215.77734375 838 1171 c 0
 838 1096.11328125 948.020507812 1093.44433594 1011.5 1082.5 c 128
 1021.16699219 1080.83300781 1026.66699219 1079.66699219 1028 1079 c 0
 1076 1079 1124 1079 1172 1079 c 1
1882 1122 m 256
 1880.66699219 1122 1880 1121 1880 1119 c 128
 1880 1117 1880.66699219 1116 1882 1116 c 256
 1883.33300781 1116 1884 1117 1884 1119 c 128
 1884 1121 1883.33300781 1122 1882 1122 c 256
563 1348 m 256
 561.666992188 1348 561 1347.16699219 561 1345.5 c 128
 561 1343.83300781 561.666992188 1343 563 1343 c 256
 564.333007812 1343 565 1343.83300781 565 1345.5 c 128
 565 1347.16699219 564.333007812 1348 563 1348 c 256
1182 1376 m 0
 1180 1376 1179 1375.33300781 1179 1374 c 128
 1179 1372.66699219 1180 1372 1182 1372 c 0
 1183.33300781 1372 1184 1372.66699219 1184 1374 c 128
 1184 1375.33300781 1183.33300781 1376 1182 1376 c 0
EndSplineSet
EndChar

StartChar: ampersand
Encoding: 38 38 34
Width: 2287
Flags: HW
LayerCount: 2
Fore
SplineSet
1450 846 m 1
 1513.66796875 771.720703125 1586.78125 694.546875 1655 623 c 1
 1761.23925781 695.366210938 1866.15722656 769.100585938 1961 853 c 128
 1978.33300781 868.333007812 1993.66699219 883 2007 897 c 1
 2216 651 l 1
 2155.73925781 587.391601562 2079.35449219 527.515625 2008 474 c 0
 1964 440.666992188 1918 407 1870 373 c 1
 2225 0 l 1
 1545 0 l 1
 1430 133 l 1
 1268.41699219 22.9365234375 1029.14746094 -35 754 -35 c 0
 581.138671875 -35 434.06640625 16.00390625 323 85 c 128
 237.232421875 138.280273438 166.630859375 213.234375 126.5 310.5 c 128
 106.833007812 358.166992188 97 411.666992188 97 471 c 0
 97 633.611328125 177.8984375 744.729492188 273 822 c 128
 374.9765625 904.856445312 519.391601562 966.127929688 672 995 c 1
 611.594726562 1065.47265625 553 1131.53808594 553 1262 c 0
 553 1492.38476562 751.754882812 1577.70605469 944.5 1616 c 128
 1032.73339844 1633.52929688 1136.29785156 1642 1235 1642 c 0
 1519.3671875 1642 1766.92871094 1561.16699219 1852.5 1361.5 c 128
 1869.5 1321.83300781 1878 1277 1878 1227 c 0
 1878 1112.00878906 1817.5234375 1037.02636719 1748 984 c 128
 1668.19042969 923.127929688 1558.69628906 879.64453125 1450 846 c 1
873 748 m 1
 783.724609375 722.4921875 691 673.954101562 691 557 c 0
 691 386.963867188 831.7109375 313 1000 313 c 0
 1082.27832031 313 1151.828125 341.689453125 1207 371 c 1
 873 748 l 1
1287 1335 m 256
 1209.48046875 1335 1143 1296.57714844 1143 1219 c 0
 1143 1189.06835938 1172.87402344 1149.24414062 1188 1127 c 0
 1200.66699219 1107.66699219 1215.66699219 1087 1233 1065 c 1
 1310.87109375 1086.85839844 1394.48730469 1117.61621094 1431 1180.5 c 128
 1437 1190.83300781 1440 1202 1440 1214 c 0
 1440 1292.64257812 1365.97167969 1335 1287 1335 c 256
EndSplineSet
EndChar

StartChar: a
Encoding: 97 97 35
Width: 2080
Flags: W
HStem: -41 297<548.776 1045.66> 0 21G<1650.72 1983> 565 219<815.594 1311> 958 322<608.315 1261.39>
VStem: 89 624<301.315 485.214> 1322 573<395.771 558.046 770 886.651>
LayerCount: 2
Fore
SplineSet
1041 1280 m 0xbc
 1468.92107191 1280 1895 1238.09846918 1895 811 c 2
 1895 399 l 2
 1895 330.580078125 1915.4453125 303 1983 303 c 1
 1983 0 l 1
 1770 0 l 2x7c
 1531.43763698 0 1369.63230241 13.7712935504 1328 215 c 1
 1212.01367188 33.1845703125 1018.60351562 -41 713 -41 c 0
 384.551438637 -41 89 63.6153892265 89 391 c 0
 89 763.151616227 647.26105044 784 1027 784 c 0
 1126.76171875 784 1223.57324219 776.725585938 1311 770 c 1
 1317.24801955 948.049676653 1205.3346629 958 1025 958 c 0
 812.114257812 958 601.868164062 925.770507812 443 868 c 1
 384.016601562 970.237304688 328.682617188 1055.12890625 265 1163 c 1
 463.765902665 1253.34788281 764.131244783 1280 1041 1280 c 0xbc
1117 565 m 0
 957.866931692 565 713 548.411294842 713 389 c 0
 713 277.525390625 833.678710938 256 945 256 c 0xbc
 1155 256 1322 337.383981672 1322 555 c 1
 1258.39941406 559.54296875 1190.05175781 565 1117 565 c 0
EndSplineSet
EndChar

StartChar: b
Encoding: 98 98 36
Width: 2082
Flags: HW
LayerCount: 2
Fore
SplineSet
151 1645 m 1
 726 1645 l 1
 726 1130 l 1
 841.58984375 1228.37402344 1037.96191406 1280 1246 1280 c 0
 1541 1280 1754.33886719 1160.24707031 1872 980 c 128
 1930.8671875 889.8203125 1971 775.1015625 1971 631 c 0
 1971 288.889648438 1789.43359375 87.08203125 1526.5 4.5 c 128
 1434.16699219 -24.5 1332 -39 1220 -39 c 0
 1059.49511719 -39 917.512695312 16.6806640625 818 86.5 c 128
 776.666992188 115.5 743.333007812 150 718 190 c 1
 718 0 l 1
 151 0 l 1
 151 1645 l 1
1365 612 m 0
 1365 812.567382812 1236.73339844 897 1031 897 c 0
 884.293945312 897 782.174804688 834.969726562 736 733 c 128
 720 697.666992188 712 657.333007812 712 612 c 0
 712 471.864257812 809.885742188 394.727539062 920 363 c 128
 959.333007812 351.666992188 999 346 1039 346 c 256
 1177.59667969 346 1284.73144531 407.584960938 1336.5 497.5 c 128
 1355.5 530.5 1365 568.666992188 1365 612 c 0
EndSplineSet
EndChar

StartChar: c
Encoding: 99 99 37
Width: 2063
Flags: HW
LayerCount: 2
Fore
SplineSet
1047 317 m 0
 1215.93066406 317 1300.4140625 385.91796875 1340 520 c 1
 1958 481 l 1
 1930.67480469 180.419921875 1702.33886719 53.138671875 1431 -3.5 c 128
 1302.09472656 -30.4072265625 1153.12792969 -41 1002 -41 c 0
 578.98046875 -41 245.592773438 85.1435546875 131 395.5 c 128
 107 460.5 95 534.666992188 95 618 c 0
 95 981.849609375 318.909179688 1150.6875 605.5 1228 c 128
 739.041992188 1264.02539062 897.213867188 1280 1061 1280 c 0
 1476.79980469 1280 1783.80859375 1186.125 1906 897.5 c 128
 1925.33300781 851.833007812 1941.33300781 804 1954 754 c 1
 1738.00097656 746.286132812 1563.6796875 742.627929688 1365 725.5 c 128
 1345.66699219 723.833007812 1334.66699219 722.333007812 1332 721 c 1
 1293.87109375 849.686523438 1192.25878906 930 1028 930 c 0
 883.083007812 930 786.669921875 860.125 741.5 756.5 c 128
 724.5 717.5 716.333007812 671.333007812 717 618 c 0
 719.798828125 413.69140625 833.225585938 317 1047 317 c 0
EndSplineSet
EndChar

StartChar: d
Encoding: 100 100 38
Width: 2066
Flags: HW
LayerCount: 2
Fore
SplineSet
1913 0 m 1
 1346 0 l 1
 1346 190 l 1
 1273.69628906 75.8359375 1125.7265625 2.330078125 971 -26 c 128
 923.666992188 -34.6669921875 881.333007812 -39 844 -39 c 0
 494.544921875 -39 254.231445312 98.2021484375 147.5 343 c 128
 111.166992188 426.333007812 93 522.333007812 93 631 c 0
 93 848.087890625 182.670898438 1005.22363281 304.5 1108.5 c 128
 425.895507812 1211.40917969 602.251953125 1280 818 1280 c 0
 1025.51171875 1280 1223.47558594 1227.46777344 1338 1130 c 1
 1338 1645 l 1
 1913 1645 l 1
 1913 0 l 1
1033 897 m 0
 827.224609375 897 699 812.592773438 699 612 c 0
 699 473.46875 798.19140625 396.028320312 906 363.5 c 128
 944.666992188 351.833007812 984 346 1024 346 c 0
 1163.38867188 346 1271.76464844 405.237304688 1323.5 496 c 128
 1342.5 529.333007812 1352 568 1352 612 c 0
 1352 798.284179688 1219.03320312 897 1033 897 c 0
EndSplineSet
EndChar

StartChar: e
Encoding: 101 101 39
Width: 2025
Flags: W
HStem: -39 312.579<839.412 1216.79> 512 231<729 1297> 977 303<840.21 1174.05>
LayerCount: 2
Fore
SplineSet
713 512 m 1
 724.50830375 365.263430004 850.520327463 273.579441194 1013.80564381 273.579441194 c 0
 1098.14092777 273.579441194 1192.41931886 298.037267627 1286 352 c 1
 1887 305 l 1
 1762.50390625 56.0078125 1452.08691406 -39 1082 -39 c 0
 552.045463639 -39 95 107.811132486 95 637 c 0
 95 1136.90527344 500.719726562 1280 998 1280 c 0
 1556.15625 1280 1921 1070.80761719 1921 512 c 1
 713 512 l 1
1297 743 m 1
 1278.34082999 873.618192761 1171.64644655 977 1018 977 c 0
 855.395507812 977 740.612304688 896.28515625 729 743 c 1
 1297 743 l 1
EndSplineSet
EndChar

StartChar: f
Encoding: 102 102 40
Width: 1055
Flags: HW
LayerCount: 2
Fore
SplineSet
608 1675 m 0
 726.200195312 1675 841.734375 1665.6875 940 1645 c 1
 940 1362 l 1
 897 1362 l 2
 825.512695312 1362 793 1346.9921875 793 1274 c 2
 793 1229 l 1
 938 1229 l 1
 938 885 l 1
 793 885 l 1
 793 0 l 1
 221 0 l 1
 221 893 l 1
 90 893 l 1
 90 1229 l 1
 221 1229 l 1
 218.514648438 1412.93359375 234.592773438 1557.90234375 350 1625 c 128
 414.608398438 1662.5625 500.028320312 1675 608 1675 c 0
EndSplineSet
EndChar

StartChar: g
Encoding: 103 103 41
Width: 2066
Flags: W
HStem: -372.357 333.141<506.192 1182.37> 97 335<835.697 1209.49> 917 363<826.045 1147.06> 1209 20G<1356 1923>
VStem: 93 612<541.189 806.497> 1356 567<100.615 194 541.827 807.477 1128 1229>
LayerCount: 2
Fore
SplineSet
230 90 m 1xdc
 330.517849872 36.9192845877 633.847793748 -39.216796875 889.171875 -39.216796875 c 0
 1132.73863333 -39.216796875 1338.72459615 18.0969257678 1346 194 c 1
 1227.44620934 134.675263755 1069.42725606 97 876 97 c 0
 448.258205443 97 93 276.267724892 93 659 c 0
 93 1074.04849088 434.724076021 1280 850 1280 c 0xec
 1089.09145664 1280 1219.70334005 1217.44604793 1356 1128 c 1
 1356 1229 l 1
 1923 1229 l 1
 1923 264 l 2
 1923 -209.832084368 1464.59800361 -372.357421875 968.553710938 -372.357421875 c 0
 661.359832013 -372.357421875 338.388585338 -310.033498244 119 -224 c 1
 230 90 l 1xdc
1049 432 m 0
 1207.6746467 432 1354 514.664021198 1354 673 c 0
 1354 848.766601562 1202.2578125 917 1028 917 c 0
 847.103515625 917 705 845.396484375 705 663 c 0
 705 498.752233998 887.046256259 432 1049 432 c 0
EndSplineSet
EndChar

StartChar: h
Encoding: 104 104 42
Width: 1994
Flags: HW
LayerCount: 2
Fore
SplineSet
1230 1280 m 0
 1611.45117188 1280 1859 1132.92480469 1859 752 c 2
 1859 0 l 1
 1283 0 l 1
 1285 471 l 2
 1285 700.084960938 1264.17773438 893 1034 893 c 0
 823.545898438 893 706 791.212890625 706 580 c 2
 706 0 l 1
 151 0 l 1
 151 1218 l 130
 151 1321.21582031 152 1429.265625 152 1523 c 128
 152 1561 152.166992188 1590.83300781 152.5 1612.5 c 130
 153 1645 l 1
 716 1645 l 1
 716 1114 l 1
 838.608398438 1210.52148438 1012.46289062 1280 1230 1280 c 0
EndSplineSet
EndChar

StartChar: i
Encoding: 105 105 43
Width: 864
Flags: W
HStem: 0 21G<152 711> 1209 20G<152 711> 1329 320<152 711>
VStem: 152 559<0 1229 1329 1649>
LayerCount: 2
Fore
SplineSet
152 1229 m 1
 711 1229 l 1
 711 0 l 1
 152 0 l 1
 152 1229 l 1
152 1649 m 1
 711 1649 l 1
 711 1329 l 1
 152 1329 l 1
 152 1649 l 1
EndSplineSet
EndChar

StartChar: j
Encoding: 106 106 44
Width: 863
Flags: W
HStem: -365 1594<152.621 570.945> 1329 320<150 709>
VStem: 150 559<-41.4928 1229 1329 1649>
LayerCount: 2
Fore
SplineSet
42 -47 m 1
 96.2705078125 -47 150 -51.9716796875 150 0 c 2
 150 1229 l 1
 709 1229 l 1
 709 0 l 2
 709 -152.29296875 687.615234375 -253.5703125 590.5 -310.5 c 0
 523.180664062 -349.962890625 432.297851562 -365 318 -365 c 0
 226.580078125 -365 130.1015625 -358.89453125 42 -354 c 1
 42 -47 l 1
150 1649 m 1
 709 1649 l 1
 709 1329 l 1
 150 1329 l 1
 150 1649 l 1
EndSplineSet
EndChar

StartChar: k
Encoding: 107 107 45
Width: 1963
Flags: HW
LayerCount: 2
Fore
SplineSet
151 1645 m 1
 714 1645 l 1
 714 852 l 1
 1140 1229 l 1
 1871 1229 l 1
 1871 1208 l 1
 1392 801 l 1
 1906 0 l 1
 1214 0 l 1
 921 465 l 1
 714 293 l 1
 714 0 l 1
 151 0 l 1
 151 1645 l 1
EndSplineSet
EndChar

StartChar: l
Encoding: 108 108 46
Width: 863
Flags: HW
LayerCount: 2
Fore
SplineSet
151 1645 m 1
 710 1645 l 1
 710 0 l 1
 151 0 l 1
 151 1645 l 1
EndSplineSet
EndChar

StartChar: m
Encoding: 109 109 47
Width: 3126
Flags: HW
LayerCount: 2
Fore
SplineSet
2168 893 m 0
 1958.70214844 893 1861 796.690429688 1861 584 c 2
 1861 0 l 1
 1286 0 l 1
 1284 639 l 1
 1277.79199219 791.099609375 1193.76269531 891 1034 891 c 0
 902.474609375 891 797.930664062 837.642578125 748 753.5 c 128
 730 723.166992188 721 688.333007812 721 649 c 2
 716 2 l 1
 143 0 l 1
 143 1229 l 1
 725 1229 l 1
 725 1071 l 1
 876.509765625 1194.60058594 1037.89257812 1280 1304 1280 c 0
 1533.578125 1280 1682.29296875 1178.609375 1781 1040 c 1
 1928.11328125 1178.10644531 2131.50195312 1280 2418 1280 c 0
 2788.41210938 1280 2992 1100.88574219 2992 727 c 2
 2992 0 l 1
 2418 0 l 1
 2418 571 l 2
 2418 759.124023438 2357.76367188 893 2168 893 c 0
EndSplineSet
EndChar

StartChar: n
Encoding: 110 110 48
Width: 1990
Flags: W
HStem: 0 21G<143 714 1281 1855> 874 406<999.972 1418.97> 1209 20G<143 720>
VStem: 143 571<0 752.85 1067 1229> 1281 574<0 775.562>
LayerCount: 2
Fore
SplineSet
1281 522 m 2xd8
 1281 728.83203125 1249.18457031 874 1040 874 c 0xd8
 858.682617188 874 756.607421875 816.7734375 727.5 668 c 0
 718.5 622 714 568.666992188 714 508 c 2
 714 0 l 1
 143 0 l 1
 143 1229 l 1
 720 1229 l 1xb8
 720 1067 l 1
 868.666992188 1209 1058.66699219 1280 1290 1280 c 0
 1547.93554688 1280 1724.17578125 1185.52832031 1808.5 1006 c 0
 1839.5 940 1855 858.666992188 1855 762 c 2
 1855 0 l 1
 1281 0 l 1
 1281 522 l 2xd8
EndSplineSet
EndChar

StartChar: o
Encoding: 111 111 49
Width: 2089
Flags: W
HStem: -39 332<846.268 1229.64> 942 338<847.483 1217.86>
VStem: 96 608<438.704 799.303> 1372 608<438.789 796.901>
LayerCount: 2
Fore
SplineSet
96 621 m 256
 96 1145.33398438 514.155273438 1280 1038 1280 c 256
 1574.76269531 1280 1949.85742188 1129.6640625 1980 621 c 1
 1980 97.5810546875 1560.74804688 -39 1038 -39 c 0
 514.557617188 -39 96 96.9775390625 96 621 c 256
704 618 m 0
 704 406.409179688 824.877929688 293 1038 293 c 256
 1251.1328125 293 1372 406.401367188 1372 618 c 0
 1372 824.947265625 1244.18457031 942 1038 942 c 0
 830.631835938 942 704 825.631835938 704 618 c 0
EndSplineSet
EndChar

StartChar: p
Encoding: 112 112 50
Width: 2072
Flags: HW
LayerCount: 2
Fore
SplineSet
1238 -39 m 0
 1030.56054688 -39 832.650390625 0.42578125 718 98 c 1
 718 -356 l 1
 143 -356 l 1
 143 1229 l 1
 710 1229 l 1
 710 1038 l 1
 780.32421875 1160.14257812 925.165039062 1238.03027344 1084.5 1267 c 128
 1132.16699219 1275.66699219 1174.66699219 1280 1212 1280 c 0
 1563.17382812 1280 1802.58105469 1140.29101562 1908.5 892.5 c 128
 1944.83300781 807.5 1963 709.333007812 1963 598 c 0
 1963 382.0546875 1872.87695312 227.856445312 1751 126.5 c 128
 1629.515625 25.4697265625 1452.6796875 -39 1238 -39 c 0
1023 332 m 0
 1228.20703125 332 1357 416.301757812 1357 616 c 0
 1357 753.943359375 1257.296875 833.252929688 1149.5 865.5 c 128
 1110.5 877.166992188 1071 883 1031 883 c 256
 891.260742188 883 784.344726562 822.956054688 732.5 732 c 128
 713.5 698.666992188 704 660 704 616 c 0
 704 430.229492188 837.479492188 332 1023 332 c 0
EndSplineSet
EndChar

StartChar: q
Encoding: 113 113 51
Width: 2063
Flags: HW
LayerCount: 2
Fore
SplineSet
1340 98 m 1
 1225.41113281 0.4775390625 1027.33203125 -39 820 -39 c 0
 492.37109375 -39 258.66796875 101.732421875 151.5 326.5 c 128
 113.833007812 405.5 95 496 95 598 c 0
 95 942.388671875 277.440429688 1148.40820312 539.5 1234.5 c 128
 631.833007812 1264.83300781 734 1280 846 1280 c 0
 1006.41601562 1280 1148.79492188 1216.35742188 1247.5 1144.5 c 128
 1289.16699219 1114.16699219 1322.66699219 1078.66699219 1348 1038 c 1
 1348 1229 l 1
 1915 1229 l 1
 1915 -356 l 1
 1340 -356 l 1
 1340 98 l 1
701 616 m 0
 701 416.328125 829.836914062 332 1035 332 c 0
 1181.50585938 332 1283.61621094 394.036132812 1330 495.5 c 128
 1346 530.5 1354 570.666992188 1354 616 c 0
 1354 756.12109375 1255.31933594 834.086914062 1145.5 866 c 128
 1106.5 877.333007812 1066.66699219 883 1026 883 c 0
 887.0234375 883 781.123046875 820.56640625 729.5 730 c 128
 710.5 696.666992188 701 658.666992188 701 616 c 0
EndSplineSet
EndChar

StartChar: r
Encoding: 114 114 52
Width: 1376
Flags: HW
LayerCount: 2
Fore
SplineSet
1132 1243 m 0
 1174.31835938 1243 1212.53710938 1238.84667969 1247 1229 c 1
 1247 686 l 1
 1195.88671875 708.716796875 1113.82714844 715 1040 715 c 0
 893.708007812 715 760.831054688 679.727539062 722 571 c 1
 722 0 l 1
 143 0 l 1
 143 1229 l 1
 716 1229 l 1
 716 1059 l 1
 722 1053 l 1
 809.517578125 1158.46972656 944.755859375 1243 1132 1243 c 0
EndSplineSet
EndChar

StartChar: s
Encoding: 115 115 53
Width: 1930
Flags: HW
LayerCount: 2
Fore
SplineSet
890.5 969 m 128
 834.305664062 969 734 961.845703125 734 907 c 0
 734 844.615234375 856.90234375 841.283203125 916 838 c 1
 1277.6015625 810.184570312 1679.0078125 802.251953125 1802 536.5 c 128
 1820.66699219 496.166992188 1830 449 1830 395 c 0
 1830 268.458984375 1770.18164062 184.372070312 1696 126 c 128
 1551.42578125 12.236328125 1321.82421875 -39 1070 -39 c 0
 682.038085938 -39 309.889648438 -15.8154296875 148 210.5 c 128
 115.333007812 256.166992188 93.6669921875 311.666992188 83 377 c 1
 746 412 l 1
 769.420898438 323.001953125 905.04296875 303 1015 303 c 0
 1080.703125 303 1174 315.462890625 1174 381 c 0
 1174 434.732421875 1055.74121094 450.258789062 1003 458.5 c 128
 821.807617188 486.811523438 619.1640625 486.208984375 452 528 c 128
 313.904296875 562.5234375 194.33984375 621.744140625 138.5 738.5 c 128
 120.166992188 776.833007812 111 822 111 874 c 0
 111 1254.64257812 525.076171875 1280 904 1280 c 0
 1173.18359375 1280 1427.26660156 1270.42871094 1592.5 1167 c 128
 1682.97167969 1110.36914062 1747.37792969 1027.38378906 1781 911 c 1
 1121 885 l 1
 1083.04199219 949.751953125 1006.44140625 969 906 969 c 0
 904 969 904 969 890.5 969 c 128
EndSplineSet
EndChar

StartChar: t
Encoding: 116 116 54
Width: 1059
Flags: HW
LayerCount: 2
Fore
SplineSet
939 -8 m 1
 841.888671875 -31 724.659179688 -39 607 -39 c 0
 390.747070312 -39 261.466796875 14.9033203125 232.5 194.5 c 128
 224.166992188 246.166992188 220 306.333007812 220 375 c 2
 220 885 l 1
 89 885 l 1
 89 1229 l 1
 220 1229 l 1
 220 1473 l 1
 769 1620 l 1
 792 1620 l 1
 792 1229 l 1
 937 1229 l 1
 937 885 l 1
 792 885 l 1
 792 362 l 2
 792 289.010742188 824.50390625 274 896 274 c 2
 939 274 l 1
 939 -8 l 1
EndSplineSet
EndChar

StartChar: u
Encoding: 117 117 55
Width: 1988
Flags: HW
LayerCount: 2
Fore
SplineSet
1263 162 m 1
 1124.32226562 41.89453125 957.236328125 -39 710 -39 c 0
 451.888671875 -39 266.879882812 56.4619140625 178 231.5 c 128
 145.333007812 295.833007812 129 374.333007812 129 467 c 2
 129 1229 l 1
 702 1229 l 1
 702 707 l 2
 702 499.924804688 734.642578125 354 944 354 c 0
 1125.61523438 354 1227.18261719 411.739257812 1256.5 560.5 c 128
 1265.5 606.166992188 1270 659.666992188 1270 721 c 2
 1270 1229 l 1
 1841 1229 l 1
 1841 0 l 1
 1263 0 l 1
 1263 162 l 1
EndSplineSet
EndChar

StartChar: v
Encoding: 118 118 56
Width: 1881
Flags: HW
LayerCount: 2
Fore
SplineSet
1242 0 m 1
 611 0 l 1
 63 1229 l 1
 655 1229 l 1
 960 520 l 1
 1220 1229 l 1
 1812 1229 l 1
 1242 0 l 1
EndSplineSet
EndChar

StartChar: w
Encoding: 119 119 57
Width: 3003
Flags: HW
LayerCount: 2
Fore
SplineSet
1779 1229 m 1
 1874.97265625 1001.22558594 1949.02929688 826.37109375 2040.5 610.5 c 128
 2048.83300781 590.833007812 2053.66699219 580 2055 578 c 1
 2330 1229 l 1
 2934 1229 l 1
 2379 0 l 1
 1809 0 l 1
 1498 670 l 1
 1187 0 l 1
 617 0 l 1
 62 1229 l 1
 667 1229 l 1
 941 578 l 1
 950.971679688 607.916015625 970.5625 646.043945312 987.5 686 c 128
 1067.24707031 874.12109375 1131.74707031 1026.98730469 1218 1229 c 1
 1779 1229 l 1
EndSplineSet
EndChar

StartChar: x
Encoding: 120 120 58
Width: 2054
Flags: W
HStem: 0 21G<53 789.068 1271.45 2007> 1209 20G<139 828.951 1231.05 1921>
LayerCount: 2
Fore
SplineSet
1034 307 m 1
 772 0 l 1
 53 0 l 1
 664 670 l 1
 139 1227 l 1
 811 1229 l 1
 1030 985 l 1
 1249 1229 l 1
 1921 1227 l 1
 1397 670 l 1
 2007 0 l 1
 1288 0 l 1
 1034 307 l 1
EndSplineSet
EndChar

StartChar: y
Encoding: 121 121 59
Width: 1892
Flags: HW
LayerCount: 2
Fore
SplineSet
192 74 m 1
 277.513671875 43.458984375 382.057617188 4 493 4 c 0
 545.309570312 4 600.74609375 9.9853515625 610 47 c 1
 430.709960938 444.709960938 243.446289062 834.446289062 61 1229 c 1
 672 1229 l 1
 983 494 l 1
 1268 1229 l 1
 1823 1229 l 1
 1335 76 l 1
 1232.74707031 -168.409179688 1091.0078125 -328.529296875 768.5 -347.5 c 128
 717.5 -350.5 663.333007812 -352 606 -352 c 0
 401.171875 -352 224.806640625 -314.663085938 80 -258 c 1
 98.2890625 -216.848632812 109.377929688 -172.928710938 130.5 -110.5 c 128
 145.5 -66.1669921875 166 -4.6669921875 192 74 c 1
EndSplineSet
EndChar

StartChar: z
Encoding: 122 122 60
Width: 1869
Flags: HW
LayerCount: 2
Fore
SplineSet
1733 371 m 1
 1733 0 l 1
 95 0 l 1
 97 293 l 1
 844 858 l 1
 183 858 l 1
 183 1229 l 1
 1745 1229 l 1
 1745 940 l 1
 932 371 l 1
 1733 371 l 1
EndSplineSet
EndChar

StartChar: zero
Encoding: 48 48 61
Width: 2212
Flags: HW
LayerCount: 2
Fore
SplineSet
1371 2 m 1
 1336.48535156 4.6552734375 1295.85546875 -8 1262 -8 c 2
 1182 -8 l 2
 1110.47460938 -8 1035.37597656 -8.5166015625 971.5 0 c 128
 965.245117188 0.833984375 954.5234375 2 949 2 c 2
 945 2 l 1
 896.07421875 7.4365234375 829.78515625 16.603515625 783 27 c 0
 781.706054688 27 763.287109375 31 762 31 c 2
 758 31 l 1
 650 61 l 1
 646 61 l 2
 631.446289062 61 604.044921875 74.958984375 587.5 81.5 c 128
 535.247070312 102.158203125 485.852539062 123.865234375 440.5 149.5 c 128
 432.833007812 153.833007812 427.333007812 156.666992188 424 158 c 1
 407.577148438 185.372070312 351.650390625 201.349609375 330 223 c 2
 287 266 l 2
 283.666992188 270 278 277.333007812 270 288 c 128
 258 304 258 304 244.5 322 c 128
 208.237304688 370.350585938 184.419921875 413.11328125 157 471 c 128
 140.095703125 506.6875 132.157226562 546.52734375 119 586 c 0
 119 588.455078125 115 593.545898438 115 596 c 0
 104.37109375 643.829101562 96.6318359375 711.3125 91 762 c 1
 91 791 l 2
 91 881.338867188 100.000976562 962.603515625 111.5 1038.5 c 128
 113.166992188 1049.5 114.333007812 1055.66699219 115 1057 c 2
 185 1229 l 1
 185 1235.05273438 197.428710938 1249.64355469 202 1256.5 c 128
 239.510742188 1312.76660156 274.692382812 1362.98046875 325 1407 c 128
 430.698242188 1499.48632812 566.873046875 1562.41894531 723 1602 c 1
 755.01171875 1591.32910156 802.493164062 1613.44335938 832 1620 c 0
 885.591796875 1631.21679688 951.590820312 1631.19042969 1012 1634 c 1
 1022 1634 l 1
 1023.82910156 1635.82910156 1029.67285156 1640 1033 1640 c 256
 1036.27148438 1640 1041.16699219 1635.83300781 1043 1634 c 1
 1209 1634 l 1
 1219 1640 l 1
 1219 1634 l 2
 1219 1629.58984375 1334.82910156 1621.24121094 1346 1620 c 1
 1367 1620 l 1
 1602 1567 l 2
 1656.10742188 1554.1171875 1694.14453125 1529.42773438 1739 1507 c 1
 2007.25585938 1384.23828125 2142.046875 1135.75195312 2126 741 c 1
 2128.66699219 741 2130 735.5625 2130 733 c 256
 2130 730.489257812 2128.66699219 723 2126 723 c 1
 2117.07519531 535.583007812 2047.22167969 404.458984375 1965 287 c 1
 1959.51269531 287 1945.37207031 268.161132812 1939 261.5 c 128
 1931.66699219 253.833007812 1923.66699219 245.666992188 1915 237 c 128
 1902 224 1902 224 1889.5 211.5 c 128
 1855.95996094 177.959960938 1814.72558594 153.583984375 1775 130.5 c 128
 1750.33300781 116.166992188 1723.33300781 102.666992188 1694 90 c 1
 1690 86 l 1
 1661.10253906 71.5517578125 1618.50683594 57.203125 1588 45 c 1
 1574.68554688 45 1557.33398438 37 1543 37 c 1
 1540.38574219 34.3857421875 1534.61328125 33.61328125 1532 31 c 1
 1371 2 l 1
1588 57 m 0
 1586 57 1585 56.3330078125 1585 55 c 128
 1585 53.6669921875 1586 53 1588 53 c 0
 1589.33300781 53 1590 53.6669921875 1590 55 c 128
 1590 56.3330078125 1589.33300781 57 1588 57 c 0
1484 781.5 m 128
 1484 794.034179688 1485 810.438476562 1485 821 c 0
 1485 1017.82519531 1405.11914062 1156.16699219 1269 1219.5 c 128
 1221 1241.83300781 1164.66699219 1253 1100 1253 c 0
 1025.89355469 1253 953.576171875 1240.23925781 912 1206 c 128
 900.666992188 1196.66699219 888.333007812 1189.33300781 875 1184 c 1
 780.1953125 1100.48144531 734 986.825195312 734 811 c 0
 734 730.19921875 748.754882812 670.736328125 769 610 c 1
 802.037109375 554.090820312 827.950195312 505.568359375 875 463 c 1
 941.219726562 413.869140625 1013.33105469 389 1127 389 c 0
 1292.98730469 389 1396.81347656 488.038085938 1447.5 606 c 128
 1465.83300781 648.666992188 1477.66699219 693.666992188 1483 741 c 1
 1483 751.4375 1484 769.165039062 1484 781.5 c 128
1684 436 m 0
 1682.66699219 436 1682 435 1682 433 c 128
 1682 431 1682.66699219 430 1684 430 c 0
 1686 430 1687 431 1687 433 c 128
 1687 435 1686 436 1684 436 c 0
670 483 m 1
 668 483 667 482 667 480 c 128
 667 478 668 477 670 477 c 0
 671.333007812 477 672 477.666992188 672 479 c 128
 672 480.333007812 671.333007812 481.666992188 670 483 c 1
635 504 m 256
 633.666992188 504 633 503.333007812 633 502 c 128
 633 500.666992188 633.666992188 500 635 500 c 256
 636.333007812 500 637 500.666992188 637 502 c 128
 637 503.333007812 636.333007812 504 635 504 c 256
492 711 m 0
 490.666992188 711 490 710.333007812 490 709 c 128
 490 707.666992188 490.666992188 707 492 707 c 0
 494 707 495 707.666992188 495 709 c 128
 495 710.333007812 494 711 492 711 c 0
478 713 m 1
 484 713 l 1
 478 717 l 1
 478 713 l 1
508 887 m 0
 506 887 505 886.333007812 505 885 c 128
 505 883.666992188 506 883 508 883 c 0
 509.333007812 883 510 883.666992188 510 885 c 128
 510 886.333007812 509.333007812 887 508 887 c 0
1670 999 m 256
 1668.66699219 999 1668 998.333007812 1668 997 c 128
 1668 995.666992188 1668.66699219 995 1670 995 c 256
 1671.33300781 995 1672 995.666992188 1672 997 c 128
 1672 998.333007812 1671.33300781 999 1670 999 c 256
1278 1241 m 0
 1276 1241 1275 1240 1275 1238 c 128
 1275 1236 1276 1235 1278 1235 c 0
 1279.33300781 1235 1280 1236 1280 1238 c 128
 1280 1240 1279.33300781 1241 1278 1241 c 0
840 1280 m 0
 838.666992188 1280 838 1279 838 1277 c 128
 838 1275 838.666992188 1274 840 1274 c 0
 842 1274 843 1275 843 1277 c 128
 843 1279 842 1280 840 1280 c 0
1459 1554 m 256
 1457.66699219 1554 1457 1553 1457 1551 c 128
 1457 1549 1457.66699219 1548 1459 1548 c 256
 1460.33300781 1548 1461 1549 1461 1551 c 128
 1461 1553 1460.33300781 1554 1459 1554 c 256
EndSplineSet
EndChar

StartChar: nine
Encoding: 57 57 62
Width: 2195
Flags: HW
LayerCount: 2
Fore
SplineSet
1621 86 m 1
 1594.8515625 72.92578125 1554.31542969 57.462890625 1522 51 c 1
 1512.19433594 55.9033203125 1482.19726562 44.0654296875 1473 41 c 1
 1382.74121094 26.3994140625 1297.09277344 18.1884765625 1205 6 c 1
 879 6 l 1
 771.508789062 16.40234375 664.201171875 27.857421875 575.5 58.5 c 128
 557.166992188 64.8330078125 537.666992188 70.6669921875 517 76 c 1
 513 76 l 1
 460.110351562 92.2734375 409.056640625 117.083984375 365 143 c 1
 347.938476562 168.592773438 310.340820312 172.659179688 289 194 c 130
 272 211 l 130
 258.942382812 224.057617188 258.282226562 243.119140625 242 252 c 1
 238 252 l 1
 190.723632812 314.641601562 142 391.125 142 494 c 1
 787 494 l 2
 799.671875 494 822.401367188 451.598632812 830 444 c 0
 883.346679688 399.544921875 956.288085938 385 1053 385 c 0
 1166.56152344 385 1278.09765625 406.930664062 1342 459 c 0
 1383.98046875 493.572265625 1438 549.3203125 1438 623 c 1
 1409.78515625 623 1388.82128906 623.069335938 1371 610 c 1
 1296.11328125 595.547851562 1222.55761719 581.885742188 1145 571 c 0
 1107.45019531 566.666992188 1072.70117188 572.412109375 1041 561 c 1
 994 561 l 2
 819.094726562 561 654.522460938 570.274414062 513 610 c 1
 506 610 l 1
 379 655 l 1
 360.315429688 645.658203125 342.956054688 673.521484375 330 680 c 0
 252.456054688 723.24609375 192.11328125 768.14453125 146 845 c 128
 134.806640625 863.65625 114.759765625 886.045898438 112 909.5 c 128
 111.333007812 915.166992188 110.333007812 918.666992188 109 920 c 1
 109 922.455078125 105 927.545898438 105 930 c 0
 89.6865234375 987.426757812 80 1034.51074219 80 1104 c 0
 80 1148.73339844 91.76171875 1192.04785156 101 1229 c 0
 121.270507812 1313.76757812 180.029296875 1377.02929688 232.5 1429.5 c 128
 235.5 1432.5 237.333007812 1434 238 1434 c 2
 242 1434 l 1
 283.37890625 1480.71777344 329.9453125 1504.70214844 390 1532 c 0
 562.708007812 1612.43945312 773.954101562 1647 1025 1647 c 0
 1194.70898438 1647 1354.97265625 1625.11132812 1498 1595 c 1
 1504 1595 l 1
 1670.93261719 1557.90332031 1809.09570312 1481.90429688 1915 1376 c 1
 1920 1376 l 1
 1923.34570312 1370.98144531 1928.44238281 1355.33496094 1934 1352 c 1
 2024 1229 l 2
 2071.25097656 1163.74902344 2091.45019531 1037.23144531 2101 936 c 128
 2104.33300781 900.666992188 2106 871.333007812 2106 848 c 256
 2106 802.44140625 2098.17382812 735.188476562 2102 688 c 1
 2071 532 l 1
 2048.515625 496.666992188 2035.80957031 442.180664062 2018 403 c 1
 1995.78222656 358.564453125 1956.72558594 314.407226562 1926 276 c 1
 1924.66699219 271.333007812 1918.5 264 1907.5 254 c 128
 1855.55273438 206.775390625 1783.06835938 153.8984375 1717.5 122 c 128
 1705.16699219 116 1697.33300781 113.666992188 1694 115 c 1
 1625 86 l 1
 1621 86 l 1
904 18 m 0
 902.666992188 18 902 17.3330078125 902 16 c 128
 902 14.6669921875 902.666992188 14 904 14 c 0
 906 14 907 14.6669921875 907 16 c 128
 907 17.3330078125 906 18 904 18 c 0
267 731 m 256
 265.666992188 731 265 730 265 728 c 128
 265 726 265.666992188 725 267 725 c 256
 268.333007812 725 269 726 269 728 c 128
 269 730 268.333007812 731 267 731 c 256
865 963 m 1
 934.950195312 941.764648438 999.564453125 928 1086 928 c 2
 1125.5 928 l 130
 1174.34863281 928 1201.48144531 949.814453125 1248 944 c 1
 1332 973 l 1
 1363.17480469 1017.16503906 1416 1013.54882812 1416 1092 c 0
 1416 1238.35546875 1233.3828125 1249 1088 1249 c 256
 957.720703125 1249 837.270507812 1229.46582031 789 1146.5 c 128
 778.333007812 1128.16699219 773 1106.33300781 773 1081 c 0
 773 1020.9375 819.615234375 984.283203125 861 963 c 1
 861 964.333007812 861.666992188 965 863 965 c 128
 864.333007812 965 865 964.333007812 865 963 c 1
1567 1149 m 1
 1568.92089844 1149 1574.04296875 1151.95703125 1571 1155 c 1
 1571 1156.64648438 1562.44335938 1152.03808594 1567 1149 c 1
572 1446 m 0
 570 1446 569 1445.33300781 569 1444 c 128
 569 1442.66699219 570 1442 572 1442 c 0
 573.333007812 1442 574 1442.66699219 574 1444 c 128
 574 1445.33300781 573.333007812 1446 572 1446 c 0
EndSplineSet
EndChar

StartChar: dollar
Encoding: 36 36 63
Width: 2209
Flags: HW
LayerCount: 2
Fore
SplineSet
1241 1622 m 1
 1567.62597656 1596.875 1873.15820312 1535.64746094 1991.5 1300.5 c 128
 2017.16699219 1249.5 2031.66699219 1189.33300781 2035 1120 c 1
 1402 1120 l 1
 1372.19726562 1188.77636719 1337.24902344 1245 1247 1245 c 1
 1247 1018 l 1
 1472.89355469 1001.78222656 1662.66992188 971.658203125 1821 908 c 128
 1931.63867188 863.516601562 2015.58789062 806.125976562 2068 718.5 c 128
 2105.32128906 656.103515625 2121 585.109375 2121 494 c 0
 2121 256.421875 1964.5234375 141.385742188 1791 76 c 128
 1633.85644531 16.7861328125 1440.89257812 -6.6826171875 1236 -14 c 1
 1236 -213 l 1
 946 -213 l 1
 946 -14 l 1
 680.840820312 10.4228515625 456.635742188 53.4404296875 293 157.5 c 128
 171.321289062 234.87890625 94.6044921875 341.57421875 87 518 c 1
 751 518 l 1
 751 413.391601562 839.030273438 369 948 369 c 1
 948 684 l 1
 636.8671875 725.484375 294.186523438 745.896484375 162.5 967 c 128
 135.5 1012.33300781 122 1067.66699219 122 1133 c 0
 122 1358.25976562 256.760742188 1467.86914062 417 1534 c 128
 566.390625 1595.65332031 755.0390625 1616.05175781 954 1626 c 1
 954 1751 l 1
 1241 1751 l 1
 1241 1622 l 1
1236 360 m 1
 1344.47363281 360 1439 404.748046875 1439 514 c 0
 1439 621.6171875 1350.25683594 645.362304688 1236 657 c 1
 1236 360 l 1
952 1249 m 1
 868.247070312 1249 769 1221.34277344 769 1137 c 0
 769 1051.02636719 866.438476562 1028 952 1028 c 1
 952 1249 l 1
EndSplineSet
EndChar

StartChar: D
Encoding: 68 68 64
Width: 2350
Flags: W
HStem: 0 422<788 1385.99> 1231 414<788 1353.59>
VStem: 151 637<422 1231> 1574 662<607.202 1052.29>
LayerCount: 2
Fore
SplineSet
2236 856 m 0
 2236 282.627929688 1939.15527344 0 1359 0 c 2
 151 0 l 1
 151 1645 l 1
 1271 1645 l 2
 1719.42480469 1645 2042.41210938 1507.99023438 2174 1196 c 0
 2215.33300781 1098 2236 984.666992188 2236 856 c 0
1574 862 m 0
 1574 1152.80859375 1358.28515625 1231 1068 1231 c 2
 788 1231 l 1
 788 422 l 1
 1070 422 l 2
 1224.63769531 422 1352.58984375 432.590820312 1441.5 496 c 0
 1538.24804688 564.999023438 1574 685.551757812 1574 862 c 0
EndSplineSet
EndChar

StartChar: cedilla
Encoding: 184 184 65
Width: 856
Flags: HW
LayerCount: 2
Fore
SplineSet
325 -449 m 0
 411.192382812 -449 466 -409.909179688 466 -328 c 0
 466 -287.930664062 439.19921875 -263.470703125 409 -243.5 c 128
 355.028320312 -207.809570312 281.366210938 -189.270507812 194 -176 c 1
 222 0 l 1
 427 0 l 1
 415 -82 l 1
 544.53125 -103.892578125 655.163085938 -150.107421875 704 -250 c 128
 718.666992188 -280 726 -314 726 -352 c 0
 726 -531.38671875 607.733398438 -623 429 -623 c 0
 318.220703125 -623 224.0390625 -596.571289062 134 -561 c 1
 157 -416 l 1
 208.82421875 -435.037109375 264.750976562 -449 325 -449 c 0
EndSplineSet
EndChar

StartChar: acute
Encoding: 180 180 68
Width: 1032
Flags: HW
LayerCount: 2
Fore
SplineSet
86 1526 m 1
 788 1935 l 1
 952 1513 l 1
 188 1329 l 1
 86 1526 l 1
EndSplineSet
EndChar

StartChar: dotlessi
Encoding: 305 305 69
Width: 849
Flags: HW
LayerCount: 2
Fore
SplineSet
143 1229 m 1
 702 1229 l 1
 702 0 l 1
 143 0 l 1
 143 1229 l 1
EndSplineSet
EndChar

StartChar: period
Encoding: 46 46 76
Width: 830
Flags: HW
LayerCount: 2
Fore
SplineSet
141 381 m 1
 700 381 l 1
 700 0 l 1
 141 0 l 1
 141 381 l 1
EndSplineSet
EndChar

StartChar: grave
Encoding: 96 96 77
Width: 1035
Flags: HW
LayerCount: 2
Fore
SplineSet
850 1329 m 1
 86 1513 l 1
 250 1935 l 1
 953 1526 l 1
 850 1329 l 1
EndSplineSet
EndChar

StartChar: circumflex
Encoding: 710 710 94
Width: 1234
Flags: HW
LayerCount: 2
Fore
SplineSet
835 1877 m 1
 1156 1389 l 1
 735 1389 l 1
 618 1691 l 1
 501 1389 l 1
 80 1389 l 1
 401 1877 l 1
 835 1877 l 1
EndSplineSet
EndChar

StartChar: dieresis
Encoding: 168 168 105
Width: 1295
Flags: HW
LayerCount: 2
Fore
SplineSet
103 1646 m 1
 558 1646 l 1
 558 1355 l 1
 103 1355 l 1
 103 1646 l 1
743 1646 m 1
 1198 1646 l 1
 1198 1355 l 1
 743 1355 l 1
 743 1646 l 1
EndSplineSet
EndChar

StartChar: caron
Encoding: 711 711 117
Width: 1202
Flags: HW
LayerCount: 2
Fore
SplineSet
387 1389 m 1
 66 1877 l 1
 487 1877 l 1
 604 1575 l 1
 721 1877 l 1
 1142 1877 l 1
 821 1389 l 1
 387 1389 l 1
EndSplineSet
EndChar

StartChar: OE
Encoding: 338 338 122
Width: 3320
Flags: HW
LayerCount: 2
Fore
SplineSet
3160 1644 m 1
 3160 1229 l 1
 2162 1229 l 1
 2162 1030 l 1
 2988 1030 l 1
 2988 614 l 1
 2162 614 l 1
 2162 418 l 1
 3217 416 l 1
 3217 2 l 1
 1214 -1 l 2
 691.111328125 -1 292.124023438 139.873046875 147 523 c 128
 113.666992188 611 97 715.333007812 97 836 c 0
 97 1252.32714844 324.62890625 1464.0546875 639 1568 c 128
 802.392578125 1622.02441406 997.6328125 1646 1214 1646 c 2
 3160 1644 l 1
1420 1261 m 2
 1357.55664062 1261 1278.30957031 1262 1214 1262 c 0
 936.786132812 1262 784 1113.37109375 784 834 c 0
 784 540.189453125 919.443359375 383 1214 383 c 0
 1269 383 1269 383 1324 383 c 128
 1395.26171875 383 1457.10742188 384.59765625 1523 386 c 1
 1523 1261 l 1
 1420 1261 l 2
EndSplineSet
EndChar

StartChar: oe
Encoding: 339 339 123
Width: 3180
Flags: HW
LayerCount: 2
Fore
SplineSet
1607 1084 m 1
 1744.74804688 1210.63867188 1934.25488281 1280 2193 1280 c 0
 2738.62011719 1280 3076 1059.41699219 3076 512 c 1
 1948 512 l 1
 1956.95703125 397.79296875 2038.59277344 327.543945312 2133.5 296.5 c 128
 2169.16699219 284.833007812 2208 279 2250 279 c 0
 2336.69140625 279 2400.10644531 304.291015625 2441 352 c 1
 3042 305 l 1
 2926.49316406 59.5478515625 2634.51855469 -39 2277 -39 c 0
 1996.25683594 -39 1783.85351562 38.33203125 1632 175 c 1
 1490.0390625 33.0390625 1287.73730469 -39 1009 -39 c 0
 493.234375 -39 97 104.205078125 97 621 c 256
 97 1138.51269531 492.434570312 1280 1009 1280 c 0
 1275.37988281 1280 1467.20605469 1214.62695312 1607 1084 c 1
705 618 m 0
 705 413.206054688 806.498046875 293 1009 293 c 0
 1218.47070312 293 1300 427.538085938 1300 637 c 0
 1300 777.71484375 1232.62988281 872.9375 1133.5 917.5 c 128
 1097.16699219 933.833007812 1055.66699219 942 1009 942 c 0
 812.127929688 942 705 816.315429688 705 618 c 0
2452 743 m 1
 2438.93164062 834.481445312 2388.4765625 909.772460938 2319.5 951 c 128
 2290.5 968.333007812 2255 977 2213 977 c 0
 2094.95410156 977 2011.13183594 929.532226562 1965 853.5 c 128
 1947 823.833007812 1936.66699219 787 1934 743 c 1
 2452 743 l 1
EndSplineSet
EndChar

StartChar: tilde
Encoding: 732 732 124
Width: 1417
Flags: HW
LayerCount: 2
Fore
SplineSet
516 1521 m 0
 457.915039062 1521 458 1457.05761719 458 1389 c 1
 97 1389 l 1
 97 1553.60546875 124.482421875 1688.22363281 187 1782 c 128
 233.147460938 1851.22167969 301.393554688 1905 404 1905 c 0
 472.877929688 1905 541.63671875 1883.77050781 600 1864.5 c 128
 692.771484375 1833.86816406 785.59375 1791.22753906 872.5 1759.5 c 128
 893.5 1751.83300781 908.666992188 1748 918 1748 c 0
 976.735351562 1748 978 1810.27539062 978 1877 c 1
 1339 1877 l 1
 1339 1711.95117188 1309.29199219 1579.20214844 1246 1485 c 128
 1198.53808594 1414.35839844 1127.41308594 1360 1022 1360 c 0
 953.474609375 1360 885.29296875 1382.16796875 828 1402 c 128
 736.765625 1433.58105469 644.799804688 1476.17382812 560 1509 c 128
 539.333007812 1517 524.666992188 1521 516 1521 c 0
EndSplineSet
EndChar

StartChar: A
Encoding: 65 65 129
Width: 2239
Flags: W
HStem: 0 21G<61 698.489 1520.55 2185> 188 322<878 1315>
LayerCount: 2
Fore
SplineSet
1087 1148 m 1
 878 510 l 1
 1315 510 l 1
 1087 1148 l 1
1528 0 m 1
 1458 188 l 1
 753 188 l 1
 692 0 l 1
 61 0 l 1
 729 1638 l 1
 1497 1638 l 1
 2185 0 l 1
 1528 0 l 1
EndSplineSet
EndChar

StartChar: B
Encoding: 66 66 130
Width: 2369
Flags: HW
LayerCount: 2
Fore
SplineSet
2164 1268 m 0
 2164 1110.67480469 2085.921875 1007.19921875 1972 952 c 1
 2145.16113281 893.466796875 2267 741.874023438 2267 514 c 0
 2267 225.918945312 2064.43261719 98.755859375 1834 40.5 c 128
 1725.42675781 13.0517578125 1597.94726562 0 1468 0 c 2
 149 0 l 1
 155 1645 l 1
 1300 1645 l 2
 1482.28320312 1645 1676.078125 1646.99609375 1827 1612 c 128
 2004.3671875 1570.87109375 2164 1485.17578125 2164 1268 c 0
1574 518 m 0
 1574 592.69921875 1506.83984375 621 1433 621 c 2
 790 618 l 1
 790 414 l 1
 1374 414 l 2
 1481.9453125 414 1574 406.65234375 1574 518 c 0
1482 1147 m 0
 1482 1209.79589844 1398.15917969 1229 1335 1229 c 2
 796 1227 l 1
 796 1036 l 1
 1300 1036 l 2
 1400.73339844 1036 1482 1044.11523438 1482 1147 c 0
EndSplineSet
EndChar

StartChar: C
Encoding: 67 67 131
Width: 2395
Flags: HW
LayerCount: 2
Fore
SplineSet
1168 -57 m 0
 633.709960938 -57 260.110351562 125.4765625 137 539 c 128
 111 626.333007812 98 726 98 838 c 0
 98 1480.06835938 586.748046875 1698 1227 1698 c 0
 1676.67578125 1698 2079.83300781 1601.80078125 2220 1290.5 c 128
 2248.66699219 1226.83300781 2263 1153 2263 1069 c 1
 1579 1026 l 1
 1526.35644531 1153.62207031 1446.16601562 1240.27148438 1294.5 1260 c 128
 1253.5 1265.33300781 1209.66699219 1268 1163 1268 c 0
 928.533203125 1268 809.15625 1115.671875 782 912 c 128
 778 882 776 856 776 834 c 0
 776 616.69921875 867.610351562 471.245117188 1023.5 407 c 128
 1078.5 384.333007812 1142.33300781 373 1215 373 c 0
 1366.30859375 373 1467.44433594 444.491210938 1532.5 534.5 c 128
 1556.83300781 568.166992188 1576.33300781 605.666992188 1591 647 c 1
 2292 602 l 1
 2292 421.022460938 2209.64746094 297.24609375 2107.5 209 c 128
 1897.22167969 27.3388671875 1552.125 -57 1168 -57 c 0
EndSplineSet
EndChar
